<svg xmlns="http://www.w3.org/2000/svg" width="57" height="60" fill="none" viewBox="0 0 57 60"><path fill="#ff6e00" d="M20.387 34.807h3.333V22.053h-3.333zM7.757 45.9V31.093a14.35 14.35 0 0 1-5.6-4.933A12.4 12.4 0 0 1 0 19.083q0-5.16 3.62-8.786 3.613-3.63 8.777-3.63.999 0 2.01.166t2.01.417l.576.13.32-.517q1.827-3.03 4.68-4.946Q24.847 0 28.333 0q3.487 0 6.34 1.917 2.854 1.916 4.744 4.946l.32.514.513-.127a21 21 0 0 1 1.903-.417 11.7 11.7 0 0 1 1.987-.166q5.226 0 8.877 3.63 3.65 3.63 3.65 8.85 0 3.866-2.124 7.043-2.119 3.177-5.633 4.9v14.807zm25.256-11.09h3.334V22.053h-3.334zM7.757 60V49.233H48.91V60z"/></svg>